# xmcd CD database file
#
# Track frame offsets:
#	150
#	13083
#	34441
#	53740
#	78317
#	114962
#	128834
#	155570
#	179784
#	193959
#	213642
#
# Disc length: 3217 seconds
#
# Revision: 0
# Processed by: cddbd v1.5PL3 Copyright (c) Steve Scherf et al.
# Submitted via: CDex 1.51
#
DISCID=9f0c8f0b
DTITLE=Erik Wøllo - Emotional Landscapes
DYEAR=2003
DGENRE=New Age
TTITLE0=In the Picture
TTITLE1=Metaphor
TTITLE2=Prism
TTITLE3=Second Totem
TTITLE4=Sounds of the Seen, Pt. 1
TTITLE5=Valley
TTITLE6=Virtual World
TTITLE7=Mountain Beach
TTITLE8=Sounds of the Seen, Pt. 2
TTITLE9=Satellite
TTITLE10=Echo of NightCadence
EXTD=YEAR: 2003
EXTT0=
EXTT1=
EXTT2=
EXTT3=
EXTT4=
EXTT5=
EXTT6=
EXTT7=
EXTT8=
EXTT9=
EXTT10=
PLAYORDER=
